<svg width="224" height="224" viewBox="0 0 224 224" fill="none" xmlns="http://www.w3.org/2000/svg">
<rect width="224" height="224" rx="20" fill="#F4F7FA"/>
<mask id="mask0_5639_3720" style="mask-type:luminance" maskUnits="userSpaceOnUse" x="37" y="37" width="150" height="150">
<path d="M37 37H187V187H37V37Z" fill="white"/>
</mask>
<g mask="url(#mask0_5639_3720)">
<path d="M79.2741 180.038H137.116C137.913 180.038 138.578 179.382 138.578 178.576V175.146C138.578 172.447 136.369 170.246 133.678 170.246H82.7039C80.0133 170.246 77.8125 172.447 77.8125 175.146V178.576C77.8125 179.382 78.4685 180.038 79.2741 180.038Z" stroke="#0265DC" stroke-width="3.5" stroke-miterlimit="10" stroke-linecap="round" stroke-linejoin="round"/>
<path d="M88.7344 170.246L92.6461 157.166M123.747 157.166L127.65 170.246" stroke="#0265DC" stroke-width="3.5" stroke-miterlimit="10" stroke-linecap="round" stroke-linejoin="round"/>
<path d="M55.1562 146.054H149.821" stroke="#0265DC" stroke-width="3.5" stroke-miterlimit="10" stroke-linecap="round" stroke-linejoin="round"/>
<path d="M39.1953 118.64C39.1953 120.766 40.9309 122.51 43.0569 122.51H130.164C132.291 122.51 134.026 120.766 134.026 118.64V47.8239C134.026 45.6978 132.291 43.9623 130.164 43.9623H43.0569C40.9309 43.9623 39.1953 45.6978 39.1953 47.8239V118.64Z" stroke="#0265DC" stroke-width="3.5" stroke-miterlimit="10" stroke-linecap="round" stroke-linejoin="round"/>
<path d="M103.124 157.166H59.1591C56.9583 157.166 55.1562 155.364 55.1562 153.163V122.51M149.821 157.166H113.231M134.026 83.5931H157.229C159.429 83.5931 161.232 85.3951 161.232 87.5959V127.6" stroke="#0265DC" stroke-width="3.5" stroke-miterlimit="10" stroke-linecap="round" stroke-linejoin="round"/>
<path d="M91.6892 64.4585H134.026M39.1953 64.4585H81.5407" stroke="#0265DC" stroke-width="3.5" stroke-miterlimit="10" stroke-linecap="round" stroke-linejoin="round"/>
<path d="M122.406 54.2021V54.2188" stroke="#0265DC" stroke-width="3.5" stroke-miterlimit="10" stroke-linecap="round" stroke-linejoin="round"/>
<path d="M111.547 54.2021V54.2188" stroke="#0265DC" stroke-width="3.5" stroke-miterlimit="10" stroke-linecap="round" stroke-linejoin="round"/>
<path d="M100.684 54.2021V54.2188" stroke="#0265DC" stroke-width="3.5" stroke-miterlimit="10" stroke-linecap="round" stroke-linejoin="round"/>
<path d="M50.8125 54.2021L73.3017 54.2188" stroke="#0265DC" stroke-width="3.5" stroke-miterlimit="10" stroke-linecap="round" stroke-linejoin="round"/>
<path d="M121.227 75.7781H88.6896C87.8758 75.7781 87.2031 76.4426 87.2031 77.2646V87.0729C87.2031 87.8947 87.8758 88.5674 88.6896 88.5674H121.227C122.041 88.5674 122.714 87.8947 122.714 87.0729V77.2646C122.714 76.4426 122.041 75.7781 121.227 75.7781Z" stroke="#0265DC" stroke-width="3.5" stroke-miterlimit="10" stroke-linecap="round" stroke-linejoin="round"/>
<path d="M122.714 100.784H87.2031" stroke="#0265DC" stroke-width="3.5" stroke-miterlimit="10" stroke-linecap="round" stroke-linejoin="round"/>
<path d="M104.535 111.19H122.714M87.2031 111.19H92.626" stroke="#0265DC" stroke-width="3.5" stroke-miterlimit="10" stroke-linecap="round" stroke-linejoin="round"/>
<path d="M167.313 171.251H167.238" stroke="#0265DC" stroke-width="3.5" stroke-miterlimit="10" stroke-linecap="round" stroke-linejoin="round"/>
<path d="M153.865 180.038H180.747C182.972 180.038 184.8 178.219 184.8 175.985V131.645C184.8 129.419 182.972 127.601 180.747 127.601H153.865C151.639 127.601 149.82 129.419 149.82 131.645V175.985C149.82 178.219 151.639 180.038 153.865 180.038Z" stroke="#0265DC" stroke-width="3.5" stroke-miterlimit="10" stroke-linecap="round" stroke-linejoin="round"/>
<path d="M52.0028 75.7782H74.4006C75.2227 75.7782 75.8953 76.4426 75.8953 77.2647V109.695C75.8953 110.518 75.2227 111.19 74.4006 111.19H52.0028C51.1808 111.19 50.5078 110.518 50.5078 109.695V77.2647C50.5078 76.4426 51.1808 75.7782 52.0028 75.7782Z" stroke="#0265DC" stroke-width="3.5" stroke-miterlimit="10" stroke-linecap="round" stroke-linejoin="round"/>
</g>
</svg>
