<svg width="224" height="224" viewBox="0 0 224 224" fill="none" xmlns="http://www.w3.org/2000/svg">
<rect width="224" height="224" rx="20" fill="#F4F7FA"/>
<path d="M46.082 116.825H55.6349C60.8957 116.825 65.1604 112.561 65.1604 107.3C65.1604 102.039 69.4252 97.7741 74.686 97.7741H87.6408C95.8478 97.7741 102.501 91.1211 102.501 82.9142C102.501 74.7072 95.8478 68.0542 87.6408 68.0542" stroke="#0F73F6" stroke-width="3.5" stroke-miterlimit="10" stroke-linejoin="round"/>
<path d="M142.508 151.551C154.958 151.551 165.051 141.458 165.051 129.007C165.051 119.394 159.034 111.186 150.56 107.945" stroke="#0F73F6" stroke-width="3.5" stroke-miterlimit="10" stroke-linejoin="round"/>
<path d="M131.408 106.465H107.155C102.292 106.465 98.3491 110.407 98.3491 115.271C98.3491 120.134 94.4066 124.076 89.5434 124.076H88.237C80.6503 124.076 74.5 130.227 74.5 137.813C74.4997 145.4 80.65 151.551 88.2367 151.551" stroke="#0F73F6" stroke-width="3.5" stroke-miterlimit="10" stroke-linejoin="round"/>
<path d="M129.961 151.551V157.996C129.961 161.555 127.075 164.441 123.516 164.441H100.48C96.9209 164.441 94.0352 161.555 94.0352 157.996V151.551" stroke="#0F73F6" stroke-width="3.5" stroke-miterlimit="10" stroke-linejoin="round"/>
<path d="M155.117 102.296L140.066 91.7573" stroke="#0F73F6" stroke-width="3.5" stroke-miterlimit="10" stroke-linejoin="round"/>
<path d="M170.887 177.332H53.1133C45.9938 177.332 40.2227 171.561 40.2227 164.441V151.551H183.777V164.441C183.777 171.561 178.006 177.332 170.887 177.332Z" stroke="#0F73F6" stroke-width="3.5" stroke-miterlimit="10" stroke-linecap="round" stroke-linejoin="round"/>
<path d="M132.629 106.362C135.849 98.6341 141.445 88.7045 148.636 78.4339C162.93 58.021 178.114 43.9919 182.551 47.0988C186.988 50.2058 178.998 69.2725 164.705 89.6854C157.488 99.9923 150.044 108.672 143.871 114.34" stroke="#0F73F6" stroke-width="3.5" stroke-miterlimit="10" stroke-linecap="round" stroke-linejoin="round"/>
<path d="M120.425 121.028C121.272 125.374 120.228 129.643 117.875 132.994C126.31 136.397 136.229 133.865 141.93 126.394C146.201 120.798 145.195 112.7 139.424 108.669C133.895 104.806 126.28 106.152 122.41 111.678C120.429 114.508 119.813 117.885 120.425 121.028Z" stroke="#0F73F6" stroke-width="3.5" stroke-miterlimit="10" stroke-linecap="round" stroke-linejoin="round"/>
<path d="M177.918 151.551V79.7734C177.918 77.1089 177.029 74.6521 175.531 72.6836" stroke="#0F73F6" stroke-width="3.5" stroke-miterlimit="10" stroke-linejoin="round"/>
<path d="M156.241 68.0547H57.8008C51.3288 68.0547 46.082 73.3015 46.082 79.7734V151.551" stroke="#0F73F6" stroke-width="3.5" stroke-miterlimit="10" stroke-linejoin="round"/>
</svg>
