<svg width="224" height="224" viewBox="0 0 224 224" fill="none" xmlns="http://www.w3.org/2000/svg">
<rect width="224" height="224" rx="20" fill="#F4F7FA"/>
<path d="M109.371 99.0563H87.2266V76.8555" stroke="#0F73F6" stroke-width="3.5" stroke-miterlimit="10" stroke-linecap="round" stroke-linejoin="round"/>
<path d="M183.777 43.3352H40.2227V59.0849H183.777V43.3352Z" stroke="#0F73F6" stroke-width="3.5" stroke-miterlimit="10" stroke-linecap="round" stroke-linejoin="round"/>
<path d="M47.7734 136.856V61.2595" stroke="#0F73F6" stroke-width="3.5" stroke-miterlimit="10" stroke-linecap="round" stroke-linejoin="round"/>
<path d="M176.227 61.2595V136.856" stroke="#0F73F6" stroke-width="3.5" stroke-miterlimit="10" stroke-linecap="round" stroke-linejoin="round"/>
<path d="M112 157.111V162.603" stroke="#0F73F6" stroke-width="3.5" stroke-miterlimit="10" stroke-linecap="round" stroke-linejoin="round"/>
<path d="M112 180.665C116.549 180.665 120.238 176.968 120.238 172.407C120.238 167.847 116.549 164.15 112 164.15C107.45 164.15 103.762 167.847 103.762 172.407C103.762 176.968 107.45 180.665 112 180.665Z" stroke="#0F73F6" stroke-width="3.5" stroke-miterlimit="10" stroke-linecap="round" stroke-linejoin="round"/>
<path d="M87.2284 123.888C100.909 123.888 112 112.771 112 99.0573C112 85.3439 100.909 74.2271 87.2284 74.2271C73.5476 74.2271 62.457 85.3439 62.457 99.0573C62.457 112.771 73.5476 123.888 87.2284 123.888Z" stroke="#0F73F6" stroke-width="3.5" stroke-miterlimit="10" stroke-linecap="round" stroke-linejoin="round"/>
<path d="M158.525 74.2271H126.586V93.8035H158.525V74.2271Z" stroke="#0F73F6" stroke-width="3.5" stroke-miterlimit="10" stroke-linecap="round" stroke-linejoin="round"/>
<path d="M126.586 107.412H158.525" stroke="#0F73F6" stroke-width="3.5" stroke-miterlimit="10" stroke-linecap="round" stroke-linejoin="round"/>
<path d="M126.586 120.373H158.525" stroke="#0F73F6" stroke-width="3.5" stroke-miterlimit="10" stroke-linecap="round" stroke-linejoin="round"/>
<path d="M183.777 139.03H40.2227V154.78H183.777V139.03Z" stroke="#0F73F6" stroke-width="3.5" stroke-miterlimit="10" stroke-linecap="round" stroke-linejoin="round"/>
</svg>
